<?xml version="1.0" encoding="utf-8"?>
<svg width="500" height="500" viewBox="0 0 500 500" fill="none" xmlns="http://www.w3.org/2000/svg">
  <g>
    <rect width="500" height="500" fill="#D3D3D3" fill-rule="evenodd" fill-opacity="0" />
    <path d="M0 250C0 111.929 111.929 0 250 0C388.071 0 500 111.929 500 250C500 388.071 388.071 500 250 500C111.929 500 0 388.071 0 250Z" fill="#FFFFFF" fill-rule="evenodd" />
    <path d="M221.064 116.914L160.18 116.914Q160.06 116.914 159.94 116.929Q159.821 116.944 159.704 116.974Q159.588 117.004 159.476 117.049Q159.365 117.094 159.259 117.152Q159.154 117.21 159.057 117.281Q158.96 117.352 158.873 117.435Q158.785 117.518 158.709 117.611Q158.633 117.704 158.569 117.806L61.9583 272.091Q61.9247 272.145 61.8947 272.2Q61.8648 272.256 61.8386 272.314Q61.8125 272.371 61.7902 272.431Q61.7679 272.49 61.7496 272.55Q61.7313 272.611 61.7171 272.673Q61.7029 272.734 61.6928 272.797Q61.6827 272.859 61.6768 272.922Q61.6709 272.985 61.6692 273.049Q61.6675 273.112 61.67 273.175Q61.6725 273.238 61.6792 273.301Q61.686 273.364 61.6968 273.426Q61.7077 273.489 61.7227 273.55Q61.7377 273.612 61.7568 273.672Q61.7758 273.732 61.7989 273.791Q61.8219 273.85 61.8488 273.908Q61.8757 273.965 61.9064 274.02Q61.937 274.076 61.9713 274.129Q62.0056 274.182 62.0433 274.233Q62.081 274.284 62.122 274.332Q62.1631 274.38 62.2072 274.425Q62.2513 274.471 62.2984 274.513Q62.3454 274.555 62.3952 274.594Q62.445 274.633 62.4972 274.669Q62.5495 274.705 62.604 274.737Q62.6585 274.769 62.715 274.797Q62.7716 274.826 62.8299 274.85Q62.8882 274.875 62.948 274.896Q63.0078 274.916 63.0688 274.933Q63.1299 274.95 63.1919 274.962Q63.2539 274.975 63.3167 274.983Q63.3794 274.992 63.4425 274.996Q63.5056 275 63.5689 275L172.864 275Q173.018 275 173.171 274.975Q173.323 274.95 173.469 274.901Q173.616 274.852 173.752 274.779Q173.889 274.707 174.012 274.614Q174.135 274.52 174.242 274.408Q174.348 274.296 174.435 274.168Q174.522 274.041 174.587 273.901Q174.652 273.761 174.694 273.612L194.671 202.218Q194.701 202.113 194.718 202.004Q194.735 201.896 194.74 201.787Q194.745 201.677 194.737 201.568Q194.729 201.459 194.708 201.351Q194.688 201.243 194.655 201.139Q194.622 201.034 194.578 200.934Q194.533 200.834 194.477 200.739Q194.422 200.645 194.355 200.558Q194.289 200.47 194.213 200.391Q194.137 200.312 194.053 200.242Q193.969 200.172 193.877 200.113Q193.785 200.053 193.687 200.004Q193.588 199.955 193.485 199.918Q193.382 199.881 193.275 199.856Q193.169 199.831 193.06 199.818Q192.951 199.806 192.841 199.806L3.59993 199.806Q3.53547 199.806 3.47115 199.801Q3.40683 199.797 3.34296 199.788Q3.27909 199.78 3.21595 199.767Q3.15282 199.754 3.09071 199.736Q3.0286 199.719 2.96781 199.698Q2.90702 199.676 2.84781 199.651Q2.78861 199.625 2.73128 199.596Q2.67394 199.566 2.61873 199.533Q2.56353 199.5 2.5107 199.463Q2.45788 199.426 2.40768 199.385Q2.35748 199.345 2.31013 199.301Q2.26279 199.257 2.21852 199.21Q2.17425 199.164 2.13326 199.114Q2.09226 199.064 2.05474 199.012Q2.01721 198.959 1.98332 198.904Q1.94943 198.85 1.91934 198.793Q1.88924 198.736 1.86308 198.677Q1.83692 198.618 1.81481 198.557Q1.7927 198.497 1.77474 198.435Q1.75679 198.373 1.74307 198.31Q1.72935 198.247 1.71993 198.183Q1.71051 198.119 1.70544 198.055Q1.70036 197.991 1.69966 197.926Q1.69895 197.862 1.70261 197.797Q1.70627 197.733 1.71428 197.669Q1.7223 197.605 1.73463 197.542Q1.74696 197.479 1.76355 197.416Q1.78014 197.354 1.80091 197.293Q1.82169 197.232 1.84655 197.172Q1.87141 197.113 1.90024 197.055Q1.92908 196.998 1.96175 196.942Q1.99443 196.887 2.03079 196.833L135.943 0.828346Q136.074 0.636865 136.247 0.482462Q136.42 0.328059 136.625 0.219797Q136.83 0.111535 137.055 0.0557676Q137.28 0 137.512 0L194.357 0Q194.586 0 194.809 0.054469Q195.031 0.108938 195.235 0.214754Q195.438 0.320569 195.61 0.471666Q195.782 0.622762 195.914 0.810478L328.242 189.822Q328.325 189.941 328.389 190.07Q328.453 190.2 328.497 190.338Q328.541 190.476 328.563 190.618Q328.585 190.761 328.586 190.906Q328.586 191.05 328.565 191.193Q328.544 191.336 328.501 191.475Q328.458 191.613 328.395 191.743Q328.332 191.873 328.249 191.992L271.506 274.179Q271.375 274.369 271.202 274.522Q271.029 274.675 270.825 274.782Q270.621 274.89 270.397 274.945Q270.173 275 269.942 275L221.064 275" fill="none" stroke-width="50" stroke="#000000" transform="translate(86 113)" />
  </g>
</svg>